Vollkorn-Bold.ufo
<glyph name="I" format="1">
  <advance width="408"/>
  <unicode hex="0049"/>
  <outline>
    <contour>
      <point x="104" y="491" type="curve" smooth="yes"/>
      <point x="104" y="187" type="line" smooth="yes"/>
      <point x="104" y="95"/>
      <point x="94" y="79"/>
      <point x="40" y="75" type="curve"/>
      <point x="35" y="56"/>
      <point x="30" y="21"/>
      <point x="30" y="-3" type="curve"/>
      <point x="77" y="-1"/>
      <point x="150" y="0"/>
      <point x="219" y="0" type="curve" smooth="yes"/>
      <point x="288" y="0"/>
      <point x="348" y="-1"/>
      <point x="378" y="-3" type="curve"/>
      <point x="378" y="23"/>
      <point x="375" y="57"/>
      <point x="370" y="75" type="curve"/>
      <point x="316" y="79"/>
      <point x="304" y="95"/>
      <point x="304" y="187" type="curve" smooth="yes"/>
      <point x="304" y="491" type="line" smooth="yes"/>
      <point x="304" y="581"/>
      <point x="314" y="595"/>
      <point x="369" y="601" type="curve"/>
      <point x="378" y="627"/>
      <point x="378" y="652"/>
      <point x="378" y="679" type="curve"/>
      <point x="338" y="677"/>
      <point x="257" y="676"/>
      <point x="209" y="676" type="curve" smooth="yes"/>
      <point x="161" y="676"/>
      <point x="63" y="677"/>
      <point x="30" y="679" type="curve"/>
      <point x="30" y="653"/>
      <point x="34" y="621"/>
      <point x="39" y="601" type="curve"/>
      <point x="95" y="593"/>
      <point x="104" y="581"/>
    </contour>
    <contour>
      <point x="204" y="0" type="move" name="bottom"/>
    </contour>
    <contour>
      <point x="306" y="0" type="move" name="ogonek"/>
    </contour>
    <contour>
      <point x="204" y="676" type="move" name="top"/>
    </contour>
  </outline>
</glyph>
<glyph name="O" format="1">
  <advance width="761"/>
  <unicode hex="004F"/>
  <outline>
    <contour>
      <point x="380" y="-9" type="curve" smooth="yes"/>
      <point x="591" y="-9"/>
      <point x="726" y="139"/>
      <point x="726" y="354" type="curve" smooth="yes"/>
      <point x="726" y="555"/>
      <point x="589" y="685"/>
      <point x="380" y="685" type="curve" smooth="yes"/>
      <point x="178" y="685"/>
      <point x="35" y="554"/>
      <point x="35" y="341" type="curve" smooth="yes"/>
      <point x="35" y="132"/>
      <point x="164" y="-9"/>
    </contour>
    <contour>
      <point x="392" y="69" type="curve" smooth="yes"/>
      <point x="286" y="69"/>
      <point x="240" y="205"/>
      <point x="240" y="365" type="curve" smooth="yes"/>
      <point x="240" y="522"/>
      <point x="286" y="610"/>
      <point x="367" y="610" type="curve" smooth="yes"/>
      <point x="463" y="610"/>
      <point x="521" y="486"/>
      <point x="521" y="333" type="curve" smooth="yes"/>
      <point x="521" y="172"/>
      <point x="475" y="69"/>
    </contour>
    <contour>
      <point x="381" y="0" type="move" name="bottom"/>
    </contour>
    <contour>
      <point x="386" y="350" type="move" name="center"/>
    </contour>
    <contour>
      <point x="529" y="20" type="move" name="ogonek"/>
    </contour>
    <contour>
      <point x="381" y="676" type="move" name="top"/>
    </contour>
    <contour>
      <point x="637" y="676" type="move" name="topright"/>
    </contour>
  </outline>
</glyph>
<glyph name="dcaron" format="1">
  <advance width="826"/>
  <unicode hex="010F"/>
  <outline>
    <contour>
      <point x="492" y="272" type="move"/>
    </contour>
    <component base="d"/>
    <component base="quoteright" xOffset="550"/>
  </outline>
</glyph>
<glyph name="ij" format="1">
  <advance width="655"/>
  <unicode hex="0133"/>
  <outline>
    <contour>
      <point x="192" y="239" type="move"/>
    </contour>
    <component base="i"/>
    <component base="j" xOffset="320"/>
  </outline>
</glyph>
<glyph name="gravecomb" format="1">
  <advance width="333"/>
  <unicode hex="0300"/>
  <outline>
    <contour>
      <point x="181" y="533" type="curve"/>
      <point x="227" y="533"/>
      <point x="258" y="539"/>
      <point x="283" y="551" type="curve"/>
      <point x="256" y="602"/>
      <point x="229" y="668"/>
      <point x="214" y="717" type="curve"/>
      <point x="156" y="717"/>
      <point x="98" y="705"/>
      <point x="50" y="685" type="curve"/>
      <point x="110" y="631"/>
      <point x="144" y="585"/>
    </contour>
    <contour>
      <point x="210" y="458" type="move" name="_top"/>
    </contour>
    <contour>
      <point x="210" y="717" type="move" name="top"/>
    </contour>
  </outline>
</glyph>
<glyph name="macroncomb" format="1">
  <advance width="484"/>
  <unicode hex="0304"/>
  <outline>
    <contour>
      <point x="50" y="563" type="curve"/>
      <point x="188" y="571"/>
      <point x="320" y="573"/>
      <point x="425" y="573" type="curve"/>
      <point x="432" y="593"/>
      <point x="434" y="617"/>
      <point x="434" y="631" type="curve"/>
      <point x="59" y="631" type="line"/>
      <point x="52" y="612"/>
      <point x="50" y="583"/>
    </contour>
    <contour>
      <point x="242" y="458" type="move" name="_top"/>
    </contour>
    <contour>
      <point x="242" y="631" type="move" name="top"/>
    </contour>
  </outline>
</glyph>
<glyph name="dotaccentcomb" format="1">
  <advance width="317"/>
  <unicode hex="0307"/>
  <outline>
    <contour>
      <point x="152" y="514" type="curve" smooth="yes"/>
      <point x="224" y="514"/>
      <point x="267" y="548"/>
      <point x="267" y="597" type="curve" smooth="yes"/>
      <point x="267" y="654"/>
      <point x="230" y="684"/>
      <point x="159" y="684" type="curve" smooth="yes"/>
      <point x="96" y="684"/>
      <point x="50" y="654"/>
      <point x="50" y="595" type="curve" smooth="yes"/>
      <point x="50" y="546"/>
      <point x="89" y="514"/>
    </contour>
    <contour>
      <point x="159" y="458" type="move" name="_top"/>
    </contour>
    <contour>
      <point x="159" y="684" type="move" name="top"/>
    </contour>
  </outline>
</glyph>
<glyph name="dieresiscomb" format="1">
  <advance width="546"/>
  <unicode hex="0308"/>
  <outline>
    <contour>
      <point x="404" y="506" type="curve" smooth="yes"/>
      <point x="471" y="506"/>
      <point x="496" y="549"/>
      <point x="496" y="596" type="curve" smooth="yes"/>
      <point x="496" y="641"/>
      <point x="455" y="676"/>
      <point x="399" y="676" type="curve" smooth="yes"/>
      <point x="342" y="676"/>
      <point x="303" y="647"/>
      <point x="303" y="596" type="curve" smooth="yes"/>
      <point x="303" y="543"/>
      <point x="337" y="506"/>
    </contour>
    <contour>
      <point x="147" y="506" type="curve" smooth="yes"/>
      <point x="201" y="506"/>
      <point x="241" y="542"/>
      <point x="241" y="588" type="curve" smooth="yes"/>
      <point x="241" y="638"/>
      <point x="212" y="676"/>
      <point x="144" y="676" type="curve" smooth="yes"/>
      <point x="78" y="676"/>
      <point x="50" y="633"/>
      <point x="50" y="586" type="curve" smooth="yes"/>
      <point x="50" y="542"/>
      <point x="89" y="506"/>
    </contour>
    <contour>
      <point x="273" y="458" type="move" name="_top"/>
    </contour>
    <contour>
      <point x="273" y="676" type="move" name="top"/>
    </contour>
  </outline>
</glyph>
<glyph name="caroncomb" format="1">
  <advance width="497"/>
  <unicode hex="030C"/>
  <outline>
    <contour>
      <point x="201" y="516" type="curve"/>
      <point x="233" y="515"/>
      <point x="266" y="518"/>
      <point x="291" y="527" type="curve"/>
      <point x="331" y="572"/>
      <point x="391" y="624"/>
      <point x="447" y="666" type="curve"/>
      <point x="440" y="688"/>
      <point x="417" y="716"/>
      <point x="385" y="723" type="curve"/>
      <point x="351" y="695"/>
      <point x="298" y="662"/>
      <point x="255" y="644" type="curve"/>
      <point x="208" y="665"/>
      <point x="160" y="694"/>
      <point x="122" y="723" type="curve"/>
      <point x="84" y="710"/>
      <point x="60" y="693"/>
      <point x="50" y="666" type="curve"/>
      <point x="100" y="621"/>
      <point x="154" y="569"/>
    </contour>
    <contour>
      <point x="249" y="458" type="move" name="_top"/>
    </contour>
    <contour>
      <point x="249" y="723" type="move" name="top"/>
    </contour>
  </outline>
</glyph>
<glyph name="breveinvertedcomb" format="1">
  <advance width="514"/>
  <unicode hex="0311"/>
  <outline>
    <component base="brevecomb" xScale="-1" yScale="-1" xOffset="514" yOffset="1233"/>
    <contour>
      <point x="257" y="458" type="move" name="_top"/>
    </contour>
    <contour>
      <point x="257" y="716" type="move" name="top"/>
    </contour>
  </outline>
</glyph>
<glyph name="commaabovecomb" format="1">
  <advance width="297"/>
  <unicode hex="0313"/>
  <outline>
    <component base="commaturnedabovecomb" xScale="-1" yScale="-1" xOffset="297" yOffset="1230"/>
    <contour>
      <point x="149" y="458" type="move" name="_top"/>
    </contour>
    <contour>
      <point x="149" y="730" type="move" name="top"/>
    </contour>
  </outline>
</glyph>
<glyph name="dotbelowcomb" format="1">
  <advance width="317"/>
  <unicode hex="0323"/>
  <outline>
    <contour>
      <point x="152" y="-236" type="curve" smooth="yes"/>
      <point x="224" y="-236"/>
      <point x="267" y="-202"/>
      <point x="267" y="-153" type="curve" smooth="yes"/>
      <point x="267" y="-96"/>
      <point x="230" y="-66"/>
      <point x="159" y="-66" type="curve" smooth="yes"/>
      <point x="96" y="-66"/>
      <point x="50" y="-96"/>
      <point x="50" y="-155" type="curve" smooth="yes"/>
      <point x="50" y="-204"/>
      <point x="89" y="-236"/>
    </contour>
    <contour>
      <point x="159" y="0" type="move" name="_bottom"/>
    </contour>
    <contour>
      <point x="161" y="-236" type="move" name="bottom"/>
    </contour>
  </outline>
</glyph>
<glyph name="dieresisbelowcomb" format="1">
  <advance width="546"/>
  <unicode hex="0324"/>
  <outline>
    <component base="dieresiscomb" yOffset="-743"/>
    <contour>
      <point x="273" y="0" type="move" name="_bottom"/>
    </contour>
    <contour>
      <point x="273" y="-237" type="move" name="bottom"/>
    </contour>
  </outline>
</glyph>
<glyph name="ringbelowcomb" format="1">
  <advance width="374"/>
  <unicode hex="0325"/>
  <outline>
    <component base="ringcomb" yOffset="-763"/>
    <contour>
      <point x="187" y="0" type="move" name="_bottom"/>
    </contour>
    <contour>
      <point x="187" y="-247" type="move" name="bottom"/>
    </contour>
  </outline>
</glyph>
<glyph name="cedillacomb" format="1">
  <advance width="285"/>
  <unicode hex="0327"/>
  <outline>
    <contour>
      <point x="59" y="-242" type="curve"/>
      <point x="172" y="-242"/>
      <point x="235" y="-205"/>
      <point x="235" y="-138" type="curve" smooth="yes"/>
      <point x="235" y="-93"/>
      <point x="204" y="-52"/>
      <point x="146" y="-43" type="curve"/>
      <point x="191" y="16" type="line"/>
      <point x="117" y="16" type="line"/>
      <point x="52" y="-63" type="line"/>
      <point x="52" y="-80"/>
      <point x="59" y="-97"/>
      <point x="70" y="-110" type="curve"/>
      <point x="103" y="-110"/>
      <point x="128" y="-125"/>
      <point x="128" y="-147" type="curve" smooth="yes"/>
      <point x="128" y="-176"/>
      <point x="92" y="-191"/>
      <point x="50" y="-191" type="curve"/>
      <point x="50" y="-206"/>
      <point x="52" y="-228"/>
    </contour>
    <contour>
      <point x="143" y="0" type="move" name="_bottom"/>
    </contour>
  </outline>
</glyph>
<glyph name="macronbelowcomb" format="1">
  <advance width="484"/>
  <unicode hex="0331"/>
  <outline>
    <contour>
      <point x="50" y="-157" type="curve"/>
      <point x="188" y="-149"/>
      <point x="320" y="-147"/>
      <point x="425" y="-147" type="curve"/>
      <point x="432" y="-127"/>
      <point x="434" y="-103"/>
      <point x="434" y="-89" type="curve"/>
      <point x="59" y="-89" type="line"/>
      <point x="52" y="-108"/>
      <point x="50" y="-137"/>
    </contour>
    <contour>
      <point x="242" y="0" type="move" name="_bottom"/>
    </contour>
    <contour>
      <point x="242" y="-157" type="move" name="bottom"/>
    </contour>
  </outline>
</glyph>
<glyph name="strokeshortcomb" format="1">
  <advance width="474"/>
  <unicode hex="0335"/>
  <outline>
    <contour>
      <point x="50" y="296" type="curve"/>
      <point x="148" y="301"/>
      <point x="210" y="303"/>
      <point x="415" y="303" type="curve"/>
      <point x="422" y="323"/>
      <point x="424" y="347"/>
      <point x="424" y="361" type="curve"/>
      <point x="59" y="361" type="line"/>
      <point x="52" y="342"/>
      <point x="50" y="316"/>
    </contour>
    <contour>
      <point x="237" y="335" type="move" name="_center"/>
    </contour>
  </outline>
</glyph>
<glyph name="strokelongcomb" format="1">
  <advance width="776"/>
  <unicode hex="0336"/>
  <outline>
    <contour>
      <point x="50" y="207" type="curve"/>
      <point x="320" y="212"/>
      <point x="459" y="212"/>
      <point x="711" y="212" type="curve"/>
      <point x="720" y="235"/>
      <point x="726" y="256"/>
      <point x="726" y="288" type="curve"/>
      <point x="65" y="288" type="line"/>
      <point x="57" y="269"/>
      <point x="50" y="242"/>
    </contour>
    <contour>
      <point x="388" y="248" type="move" name="_center"/>
    </contour>
  </outline>
</glyph>
<glyph name="slashshortcomb" format="1">
  <advance width="566"/>
  <unicode hex="0337"/>
  <outline>
    <contour>
      <point x="89" y="187" type="line"/>
      <point x="516" y="399" type="line"/>
      <point x="477" y="480" type="line"/>
      <point x="50" y="268" type="line"/>
    </contour>
    <contour>
      <point x="283" y="334" type="move" name="_center"/>
    </contour>
  </outline>
</glyph>
<glyph name="slashlongcomb" format="1">
  <advance width="566"/>
  <unicode hex="0338"/>
  <outline>
    <contour>
      <point x="89" y="187" type="line"/>
      <point x="516" y="399" type="line"/>
      <point x="477" y="480" type="line"/>
      <point x="50" y="268" type="line"/>
    </contour>
    <contour>
      <point x="283" y="334" type="move" name="_center"/>
    </contour>
  </outline>
</glyph>
<glyph name="Alpha" format="1">
  <advance width="717"/>
  <unicode hex="0391"/>
  <outline>
    <component base="A"/>
    <contour>
      <point x="210" y="676" type="move" name="topleft"/>
    </contour>
  </outline>
</glyph>
<glyph name="Epsilon" format="1">
  <advance width="646"/>
  <unicode hex="0395"/>
  <outline>
    <component base="E"/>
    <contour>
      <point x="10" y="676" type="move" name="topleft"/>
    </contour>
  </outline>
</glyph>
<glyph name="Eta" format="1">
  <advance width="802"/>
  <unicode hex="0397"/>
  <outline>
    <component base="H"/>
    <contour>
      <point x="10" y="676" type="move" name="topleft"/>
    </contour>
  </outline>
</glyph>
<glyph name="Iota" format="1">
  <advance width="408"/>
  <unicode hex="0399"/>
  <outline>
    <component base="I"/>
    <contour>
      <point x="10" y="676" type="move" name="topleft"/>
    </contour>
  </outline>
</glyph>
<glyph name="Upsilon" format="1">
  <advance width="634"/>
  <unicode hex="03A5"/>
  <outline>
    <component base="Y"/>
    <contour>
      <point x="0" y="676" type="move" name="topleft"/>
    </contour>
  </outline>
</glyph>
<glyph name="I-cy" format="1">
  <advance width="408"/>
  <unicode hex="0406"/>
  <outline>
    <component base="I"/>
    <contour>
      <point x="204" y="676" type="move" name="top"/>
    </contour>
  </outline>
</glyph>
<glyph name="Pe-cy" format="1">
  <advance width="794"/>
  <unicode hex="041F"/>
  <outline>
    <contour>
      <point x="30" y="-3" type="curve"/>
      <point x="77" y="-1"/>
      <point x="150" y="0"/>
      <point x="219" y="0" type="curve" smooth="yes"/>
      <point x="288" y="0"/>
      <point x="348" y="-1"/>
      <point x="378" y="-3" type="curve"/>
      <point x="378" y="23"/>
      <point x="375" y="57"/>
      <point x="370" y="75" type="curve"/>
      <point x="316" y="79"/>
      <point x="304" y="95"/>
      <point x="304" y="187" type="curve" smooth="yes"/>
      <point x="304" y="491" type="line" smooth="yes"/>
      <point x="304" y="554"/>
      <point x="309" y="580"/>
      <point x="331" y="592" type="curve" smooth="yes"/>
      <point x="340" y="597"/>
      <point x="353" y="601"/>
      <point x="397" y="601" type="curve" smooth="yes"/>
      <point x="441" y="601"/>
      <point x="454" y="597"/>
      <point x="463" y="592" type="curve" smooth="yes"/>
      <point x="485" y="580"/>
      <point x="490" y="554"/>
      <point x="490" y="491" type="curve" smooth="yes"/>
      <point x="490" y="187" type="line" smooth="yes"/>
      <point x="490" y="95"/>
      <point x="480" y="79"/>
      <point x="426" y="75" type="curve"/>
      <point x="421" y="56"/>
      <point x="416" y="21"/>
      <point x="416" y="-3" type="curve"/>
      <point x="463" y="-1"/>
      <point x="536" y="0"/>
      <point x="605" y="0" type="curve" smooth="yes"/>
      <point x="674" y="0"/>
      <point x="734" y="-1"/>
      <point x="764" y="-3" type="curve"/>
      <point x="764" y="23"/>
      <point x="761" y="57"/>
      <point x="756" y="75" type="curve"/>
      <point x="702" y="79"/>
      <point x="690" y="95"/>
      <point x="690" y="187" type="curve" smooth="yes"/>
      <point x="690" y="491" type="line" smooth="yes"/>
      <point x="690" y="581"/>
      <point x="700" y="595"/>
      <point x="755" y="601" type="curve"/>
      <point x="764" y="627"/>
      <point x="764" y="652"/>
      <point x="764" y="679" type="curve"/>
      <point x="724" y="677"/>
      <point x="643" y="676"/>
      <point x="495" y="676" type="curve" smooth="yes"/>
      <point x="309" y="676" type="line" smooth="yes"/>
      <point x="161" y="676"/>
      <point x="63" y="677"/>
      <point x="30" y="679" type="curve"/>
      <point x="30" y="653"/>
      <point x="34" y="621"/>
      <point x="39" y="601" type="curve"/>
      <point x="95" y="593"/>
      <point x="104" y="581"/>
      <point x="104" y="491" type="curve" smooth="yes"/>
      <point x="104" y="187" type="line" smooth="yes"/>
      <point x="104" y="95"/>
      <point x="94" y="79"/>
      <point x="40" y="75" type="curve"/>
      <point x="35" y="56"/>
      <point x="30" y="21"/>
    </contour>
    <contour>
      <point x="756" y="75" type="move" name="bottomright"/>
    </contour>
    <contour>
      <point x="690" y="350" type="move" name="right"/>
    </contour>
    <contour>
      <point x="398" y="676" type="move" name="top"/>
    </contour>
    <contour>
      <point x="39" y="601" type="move" name="topleft"/>
    </contour>
  </outline>
</glyph>
<glyph name="ie-cy" format="1">
  <advance width="545"/>
  <unicode hex="0435"/>
  <outline>
    <component base="e"/>
    <contour>
      <point x="273" y="458" type="move" name="top"/>
    </contour>
  </outline>
</glyph>
<glyph name="i-cy" format="1">
  <advance width="400"/>
  <unicode hex="0456"/>
  <outline>
    <component base="i"/>
    <contour>
      <point x="185" y="458" type="move" name="top"/>
    </contour>
  </outline>
</glyph>
<glyph name="northWestArrow" format="1">
  <advance width="738"/>
  <unicode hex="2196"/>
  <outline>
    <contour>
      <point x="605" y="39" type="curve"/>
      <point x="635" y="49"/>
      <point x="660" y="68"/>
      <point x="688" y="95" type="curve"/>
      <point x="277" y="506" type="line"/>
      <point x="324" y="531"/>
      <point x="367" y="546"/>
      <point x="420" y="558" type="curve"/>
      <point x="421" y="568"/>
      <point x="411" y="586"/>
      <point x="400" y="598" type="curve" smooth="yes"/>
      <point x="383" y="615"/>
      <point x="368" y="618"/>
      <point x="352" y="618" type="curve" smooth="yes"/>
      <point x="271" y="614"/>
      <point x="201" y="629"/>
      <point x="87" y="669" type="curve"/>
      <point x="76" y="658"/>
      <point x="55" y="627"/>
      <point x="50" y="611" type="curve"/>
      <point x="77" y="557"/>
      <point x="109" y="403"/>
      <point x="105" y="315" type="curve"/>
      <point x="136" y="301"/>
      <point x="155" y="296"/>
      <point x="169" y="310" type="curve" smooth="yes"/>
      <point x="177" y="318"/>
      <point x="183" y="330"/>
      <point x="187" y="347" type="curve" smooth="yes"/>
      <point x="194" y="380"/>
      <point x="205" y="418"/>
      <point x="216" y="445" type="curve"/>
      <point x="349" y="313"/>
      <point x="481" y="180"/>
    </contour>
  </outline>
</glyph>
<glyph name="__tail-cy" format="1">
  <advance width="40"/>
  <outline>
    <contour>
      <point x="19" y="-184" type="curve"/>
      <point x="87" y="-98"/>
      <point x="114" y="-54"/>
      <point x="133" y="0" type="curve"/>
      <point x="133" y="30"/>
      <point x="125" y="54"/>
      <point x="108" y="75" type="curve"/>
      <point x="-75" y="75" type="line"/>
      <point x="-75" y="0" type="line"/>
      <point x="-12" y="0"/>
      <point x="0" y="-26"/>
      <point x="-62" y="-134" type="curve"/>
      <point x="-41" y="-158"/>
      <point x="-18" y="-173"/>
    </contour>
    <contour>
      <point x="75" y="75" type="move" name="_bottomright"/>
    </contour>
  </outline>
</glyph>
<glyph name="_part.Ldot" format="1">
  <advance width="641"/>
  <outline>
    <contour>
      <point x="524" y="305" type="curve" smooth="yes"/>
      <point x="571" y="305"/>
      <point x="597" y="338"/>
      <point x="597" y="378" type="curve" smooth="yes"/>
      <point x="597" y="412"/>
      <point x="570" y="444"/>
      <point x="528" y="444" type="curve" smooth="yes"/>
      <point x="486" y="444"/>
      <point x="452" y="419"/>
      <point x="452" y="375" type="curve" smooth="yes"/>
      <point x="452" y="332"/>
      <point x="480" y="305"/>
    </contour>
    <contour>
      <point x="203" y="350" type="move" name="_center"/>
    </contour>
  </outline>
</glyph>
<glyph name="_part.Qss02.sc" format="1">
  <advance width="362"/>
  <outline>
    <contour>
      <point x="302" y="-9" type="curve"/>
      <point x="321" y="3"/>
      <point x="345" y="32"/>
      <point x="354" y="57" type="curve"/>
      <point x="78" y="212" type="line"/>
      <point x="59" y="198"/>
      <point x="34" y="165"/>
      <point x="24" y="138" type="curve"/>
      <point x="119" y="98"/>
      <point x="213" y="51"/>
    </contour>
    <contour>
      <point x="40" y="0" type="move" name="_bottom"/>
    </contour>
  </outline>
</glyph>
<glyph name="_part.Theta" format="1">
  <advance width="268"/>
  <outline>
    <contour>
      <point x="22" y="304" type="curve"/>
      <point x="110" y="313"/>
      <point x="181" y="314"/>
      <point x="235" y="314" type="curve"/>
      <point x="243" y="339"/>
      <point x="246" y="363"/>
      <point x="246" y="387" type="curve"/>
      <point x="33" y="387" type="line"/>
      <point x="25" y="358"/>
      <point x="22" y="329"/>
    </contour>
    <contour>
      <point x="140" y="350" type="move" name="_center"/>
    </contour>
  </outline>
</glyph>
<glyph name="_part.ThetaSymbol" format="1">
  <advance width="387"/>
  <outline>
    <contour>
      <point x="22" y="304" type="line"/>
      <point x="164" y="313"/>
      <point x="235" y="314"/>
      <point x="365" y="314" type="curve"/>
      <point x="365" y="387" type="line"/>
      <point x="22" y="387" type="line"/>
    </contour>
    <contour>
      <point x="194" y="350" type="move" name="_center"/>
    </contour>
  </outline>
</glyph>
<glyph name="_part.cedi.sc.black" format="1">
  <advance width="554"/>
  <outline>
    <contour>
      <point x="289" y="471" type="line"/>
      <point x="371" y="471" type="line"/>
      <point x="371" y="505"/>
      <point x="372" y="539"/>
      <point x="372" y="587" type="curve"/>
      <point x="346" y="597"/>
      <point x="316" y="601"/>
      <point x="289" y="601" type="curve"/>
    </contour>
    <contour>
      <point x="372" y="-98" type="curve"/>
      <point x="372" y="-58"/>
      <point x="371" y="-23"/>
      <point x="371" y="18" type="curve"/>
      <point x="289" y="18" type="line"/>
      <point x="289" y="-84" type="line"/>
      <point x="305" y="-94"/>
      <point x="349" y="-98"/>
    </contour>
    <contour>
      <point x="332" y="500" type="move" name="_top"/>
    </contour>
  </outline>
</glyph>
<glyph name="_part.cedi.sc" format="1">
  <advance width="554"/>
  <outline>
    <contour>
      <point x="372" y="-98" type="curve"/>
      <point x="371" y="-4"/>
      <point x="371" y="59"/>
      <point x="371" y="251" type="curve" smooth="yes"/>
      <point x="371" y="428"/>
      <point x="371" y="460"/>
      <point x="372" y="587" type="curve"/>
      <point x="346" y="597"/>
      <point x="316" y="601"/>
      <point x="289" y="601" type="curve"/>
      <point x="289" y="-84" type="line"/>
      <point x="305" y="-94"/>
      <point x="349" y="-98"/>
    </contour>
    <contour>
      <point x="332" y="500" type="move" name="_top"/>
    </contour>
  </outline>
</glyph>
<glyph name="_part.colonsign.sc.black" format="1">
  <advance width="555"/>
  <outline>
    <contour>
      <point x="242" y="-114" type="curve"/>
      <point x="253" y="-52"/>
      <point x="264" y="5"/>
      <point x="275" y="60" type="curve"/>
      <point x="200" y="97" type="line"/>
      <point x="162" y="-85" type="line"/>
      <point x="176" y="-99"/>
      <point x="218" y="-110"/>
    </contour>
    <contour>
      <point x="386" y="-114" type="curve"/>
      <point x="397" y="-58"/>
      <point x="407" y="-5"/>
      <point x="417" y="47" type="curve"/>
      <point x="333" y="44" type="line"/>
      <point x="306" y="-85" type="line"/>
      <point x="321" y="-99"/>
      <point x="362" y="-110"/>
    </contour>
    <contour>
      <point x="275" y="455" type="line"/>
      <point x="359" y="455" type="line"/>
      <point x="367" y="494"/>
      <point x="376" y="534"/>
      <point x="386" y="576" type="curve"/>
      <point x="363" y="592"/>
      <point x="333" y="601"/>
      <point x="306" y="605" type="curve"/>
    </contour>
    <contour>
      <point x="419" y="455" type="line"/>
      <point x="503" y="455" type="line"/>
      <point x="511" y="494"/>
      <point x="520" y="534"/>
      <point x="530" y="576" type="curve"/>
      <point x="507" y="592"/>
      <point x="478" y="601"/>
      <point x="451" y="605" type="curve"/>
    </contour>
    <contour>
      <point x="356" y="500" type="move" name="_top"/>
    </contour>
  </outline>
</glyph>
<glyph name="_part.gstroke.black" format="1">
  <advance width="584"/>
  <outline>
    <contour>
      <point x="460" y="-85" type="line"/>
      <point x="460" y="-161" type="line"/>
      <point x="501" y="-161"/>
      <point x="545" y="-161"/>
      <point x="594" y="-161" type="curve"/>
      <point x="602" y="-138"/>
      <point x="608" y="-117"/>
      <point x="608" y="-85" type="curve"/>
    </contour>
    <contour>
      <point x="102" y="-164" type="curve"/>
      <point x="102" y="-85" type="line"/>
      <point x="-27" y="-85" type="line"/>
      <point x="-34" y="-104"/>
      <point x="-41" y="-131"/>
      <point x="-41" y="-166" type="curve"/>
      <point x="11" y="-165"/>
      <point x="58" y="-164"/>
    </contour>
    <contour>
      <point x="283" y="-125" type="move" name="_center"/>
    </contour>
  </outline>
</glyph>
<glyph name="_part.gstroke" format="1">
  <advance width="584"/>
  <outline>
    <contour>
      <point x="-41" y="-166" type="curve"/>
      <point x="218" y="-161"/>
      <point x="352" y="-161"/>
      <point x="594" y="-161" type="curve"/>
      <point x="602" y="-138"/>
      <point x="608" y="-117"/>
      <point x="608" y="-85" type="curve"/>
      <point x="-27" y="-85" type="line"/>
      <point x="-34" y="-104"/>
      <point x="-41" y="-131"/>
    </contour>
    <contour>
      <point x="283" y="-125" type="move" name="_center"/>
    </contour>
  </outline>
</glyph>
<glyph name="_part.istroke" format="1">
  <advance width="268"/>
  <outline>
    <contour>
      <point x="-58" y="304" type="curve"/>
      <point x="70" y="313"/>
      <point x="181" y="314"/>
      <point x="325" y="314" type="curve"/>
      <point x="333" y="339"/>
      <point x="336" y="363"/>
      <point x="336" y="387" type="curve"/>
      <point x="-47" y="387" type="line"/>
      <point x="-55" y="358"/>
      <point x="-58" y="329"/>
    </contour>
    <contour>
      <point x="139" y="350" type="move" name="_center"/>
    </contour>
  </outline>
</glyph>
<glyph name="_part.ldot" format="1">
  <advance width="391"/>
  <outline>
    <contour>
      <point x="384" y="283" type="curve" smooth="yes"/>
      <point x="431" y="283"/>
      <point x="457" y="318"/>
      <point x="457" y="358" type="curve" smooth="yes"/>
      <point x="457" y="391"/>
      <point x="430" y="423"/>
      <point x="388" y="423" type="curve" smooth="yes"/>
      <point x="345" y="423"/>
      <point x="312" y="398"/>
      <point x="312" y="354" type="curve" smooth="yes"/>
      <point x="312" y="311"/>
      <point x="339" y="283"/>
    </contour>
    <contour>
      <point x="189" y="340" type="move" name="_center"/>
    </contour>
  </outline>
</glyph>
<glyph name="_part.naira" format="1">
  <advance width="711"/>
  <outline>
    <contour>
      <point x="-10" y="332" type="curve"/>
      <point x="290" y="337"/>
      <point x="429" y="337"/>
      <point x="711" y="337" type="curve"/>
      <point x="720" y="360"/>
      <point x="726" y="381"/>
      <point x="726" y="413" type="curve"/>
      <point x="5" y="413" type="line"/>
      <point x="-3" y="394"/>
      <point x="-10" y="367"/>
    </contour>
    <contour>
      <point x="358" y="373" type="move" name="_center"/>
    </contour>
  </outline>
</glyph>
<glyph name="_part.naira.sc.black" format="1">
  <advance width="621"/>
  <outline>
    <contour>
      <point x="17" y="211" type="curve"/>
      <point x="75" y="212"/>
      <point x="124" y="212"/>
      <point x="168" y="213" type="curve"/>
      <point x="168" y="287" type="line"/>
      <point x="31" y="287" type="line"/>
      <point x="24" y="269"/>
      <point x="17" y="249"/>
    </contour>
    <contour>
      <point x="537" y="215" type="line"/>
      <point x="574" y="215"/>
      <point x="614" y="215"/>
      <point x="659" y="215" type="curve"/>
      <point x="668" y="236"/>
      <point x="673" y="255"/>
      <point x="673" y="287" type="curve"/>
      <point x="537" y="287" type="line"/>
    </contour>
    <contour>
      <point x="345" y="249" type="move" name="_center"/>
    </contour>
  </outline>
</glyph>
<glyph name="_part.naira.sc" format="1">
  <advance width="621"/>
  <outline>
    <contour>
      <point x="-17" y="246" type="curve"/>
      <point x="265" y="250"/>
      <point x="336" y="250"/>
      <point x="625" y="250" type="curve"/>
      <point x="634" y="271"/>
      <point x="639" y="290"/>
      <point x="639" y="322" type="curve"/>
      <point x="-3" y="322" type="line"/>
      <point x="-10" y="304"/>
      <point x="-17" y="284"/>
    </contour>
    <contour>
      <point x="311" y="284" type="move" name="_center"/>
    </contour>
  </outline>
</glyph>
<glyph name="_part.oslash.sc" format="1">
  <advance width="684"/>
  <outline>
    <contour>
      <point x="481" y="475" type="line"/>
      <point x="579" y="448" type="line"/>
      <point x="658" y="537" type="line"/>
      <point x="637" y="550"/>
      <point x="594" y="560"/>
      <point x="556" y="560" type="curve"/>
    </contour>
    <contour>
      <point x="228" y="68" type="line"/>
      <point x="150" y="112" type="line"/>
      <point x="50" y="-2" type="line"/>
      <point x="71" y="-14"/>
      <point x="110" y="-19"/>
      <point x="154" y="-19" type="curve"/>
    </contour>
    <contour>
      <point x="179" y="144" type="line"/>
      <point x="253" y="87" type="line"/>
      <point x="518" y="386" type="line"/>
      <point x="444" y="445" type="line"/>
    </contour>
    <contour>
      <point x="348" y="281" type="move" name="_center"/>
    </contour>
  </outline>
</glyph>
<glyph name="_part.won.sc.black" format="1">
  <advance width="864"/>
  <outline>
    <contour>
      <point x="-4" y="269" type="curve"/>
      <point x="129" y="273"/>
      <point x="263" y="275"/>
      <point x="396" y="276" type="curve"/>
      <point x="423" y="340" type="line"/>
      <point x="6" y="340" type="line"/>
      <point x="-3" y="321"/>
      <point x="-4" y="297"/>
    </contour>
    <contour>
      <point x="0" y="140" type="curve"/>
      <point x="74" y="143"/>
      <point x="149" y="145"/>
      <point x="224" y="146" type="curve"/>
      <point x="202" y="211" type="line"/>
      <point x="11" y="211" type="line"/>
      <point x="0" y="189"/>
      <point x="0" y="168"/>
    </contour>
    <contour>
      <point x="854" y="140" type="curve"/>
      <point x="860" y="163"/>
      <point x="865" y="182"/>
      <point x="865" y="211" type="curve"/>
      <point x="688" y="211" type="line"/>
      <point x="662" y="145" type="line"/>
      <point x="726" y="144"/>
      <point x="790" y="142"/>
    </contour>
    <contour>
      <point x="857" y="269" type="curve"/>
      <point x="864" y="293"/>
      <point x="867" y="312"/>
      <point x="867" y="340" type="curve"/>
      <point x="566" y="340" type="line"/>
      <point x="589" y="275" type="line"/>
      <point x="678" y="274"/>
      <point x="767" y="272"/>
    </contour>
    <contour>
      <point x="432" y="207" type="move" name="_center"/>
    </contour>
  </outline>
</glyph>
<glyph name="_part.won.sc" format="1">
  <advance width="864"/>
  <outline>
    <contour>
      <point x="0" y="141" type="curve"/>
      <point x="284" y="151"/>
      <point x="570" y="151"/>
      <point x="854" y="141" type="curve"/>
      <point x="860" y="164"/>
      <point x="865" y="183"/>
      <point x="865" y="212" type="curve"/>
      <point x="11" y="212" type="line"/>
      <point x="0" y="190"/>
      <point x="0" y="169"/>
    </contour>
    <contour>
      <point x="-4" y="270" type="curve"/>
      <point x="283" y="279"/>
      <point x="570" y="279"/>
      <point x="857" y="270" type="curve"/>
      <point x="864" y="294"/>
      <point x="867" y="313"/>
      <point x="867" y="341" type="curve"/>
      <point x="6" y="341" type="line"/>
      <point x="-3" y="322"/>
      <point x="-4" y="298"/>
    </contour>
    <contour>
      <point x="432" y="208" type="move" name="_center"/>
    </contour>
  </outline>
</glyph>
<glyph name="_part.zero.zero" format="1">
  <advance width="568"/>
  <outline>
    <contour>
      <point x="250" y="58" type="line"/>
      <point x="403" y="377" type="line"/>
      <point x="342" y="437" type="line"/>
      <point x="185" y="106" type="line"/>
    </contour>
    <contour>
      <point x="295" y="249" type="move" name="_center"/>
    </contour>
  </outline>
</glyph>
<glyph name="acutecomb.loclPLK" format="1">
  <advance width="327"/>
  <outline>
    <contour>
      <point x="161" y="530" type="curve"/>
      <point x="183" y="589"/>
      <point x="211" y="650"/>
      <point x="241" y="710" type="curve"/>
      <point x="222" y="717"/>
      <point x="197" y="719"/>
      <point x="173" y="719" type="curve" smooth="yes"/>
      <point x="139" y="719"/>
      <point x="102" y="715"/>
      <point x="78" y="706" type="curve"/>
      <point x="79" y="652"/>
      <point x="74" y="609"/>
      <point x="64" y="550" type="curve"/>
      <point x="84" y="540"/>
      <point x="125" y="530"/>
    </contour>
    <contour>
      <point x="106" y="458" type="move" name="_top"/>
    </contour>
    <contour>
      <point x="106" y="719" type="move" name="top"/>
    </contour>
  </outline>
</glyph>
<glyph name="brevecomb-cy.case" format="1">
  <advance width="556"/>
  <outline>
    <contour>
      <point x="269" y="725" type="curve" smooth="yes"/>
      <point x="428" y="725"/>
      <point x="506" y="789"/>
      <point x="506" y="881" type="curve"/>
      <point x="473" y="895"/>
      <point x="415" y="899"/>
      <point x="374" y="892" type="curve"/>
      <point x="367" y="819"/>
      <point x="342" y="792"/>
      <point x="279" y="792" type="curve" smooth="yes"/>
      <point x="222" y="792"/>
      <point x="195" y="819"/>
      <point x="183" y="892" type="curve"/>
      <point x="141" y="900"/>
      <point x="83" y="896"/>
      <point x="50" y="883" type="curve"/>
      <point x="50" y="789"/>
      <point x="123" y="725"/>
    </contour>
    <contour>
      <point x="278" y="676" type="move" name="_top"/>
    </contour>
  </outline>
</glyph>
<glyph name="breveinvertedcomb.case" format="1">
  <advance width="464"/>
  <outline>
    <component base="brevecomb.case" xScale="-1" yScale="-1" xOffset="464" yOffset="1600"/>
    <contour>
      <point x="232" y="676" type="move" name="_top"/>
    </contour>
    <contour>
      <point x="232" y="879" type="move" name="top"/>
    </contour>
  </outline>
</glyph>
<glyph name="breveinvertedcomb.i.case" format="1">
  <advance width="441"/>
  <outline>
    <component base="brevecomb.i.case" xScale="-1" yScale="-1" xOffset="441" yOffset="1585"/>
    <contour>
      <point x="221" y="676" type="move" name="_top"/>
    </contour>
    <contour>
      <point x="221" y="875" type="move" name="top"/>
    </contour>
  </outline>
</glyph>
<glyph name="breveinvertedcomb.i" format="1">
  <advance width="530"/>
  <outline>
    <component base="brevecomb.i" xScale="-1" yScale="-1" xOffset="530" yOffset="1233"/>
    <contour>
      <point x="265" y="458" type="move" name="_top"/>
    </contour>
    <contour>
      <point x="265" y="716" type="move" name="top"/>
    </contour>
  </outline>
</glyph>
<glyph name="caroncomb.i" format="1">
  <advance width="557"/>
  <outline>
    <component base="circumflexcomb.i" xScale="-1" yScale="-1" xOffset="513" yOffset="1236"/>
    <contour>
      <point x="278" y="458" type="move" name="_top"/>
    </contour>
    <contour>
      <point x="278" y="721" type="move" name="top"/>
    </contour>
  </outline>
</glyph>
<glyph name="circumflexcomb.case" format="1">
  <advance width="485"/>
  <outline>
    <contour>
      <point x="117" y="728" type="curve"/>
      <point x="147" y="748"/>
      <point x="192" y="766"/>
      <point x="225" y="782" type="curve"/>
      <point x="265" y="765"/>
      <point x="309" y="745"/>
      <point x="341" y="725" type="curve"/>
      <point x="387" y="734"/>
      <point x="413" y="754"/>
      <point x="435" y="781" type="curve"/>
      <point x="376" y="820"/>
      <point x="328" y="857"/>
      <point x="291" y="894" type="curve"/>
      <point x="259" y="894"/>
      <point x="229" y="892"/>
      <point x="201" y="883" type="curve"/>
      <point x="161" y="849"/>
      <point x="102" y="812"/>
      <point x="50" y="781" type="curve"/>
      <point x="58" y="758"/>
      <point x="83" y="732"/>
    </contour>
    <contour>
      <point x="243" y="676" type="move" name="_top"/>
    </contour>
    <contour>
      <point x="243" y="874" type="move" name="top"/>
    </contour>
    <contour>
      <point x="403" y="824" type="move" name="top.hook"/>
    </contour>
  </outline>
</glyph>
<glyph name="circumflexcomb.i" format="1">
  <advance width="471"/>
  <outline>
    <contour>
      <point x="137" y="515" type="curve"/>
      <point x="159" y="545"/>
      <point x="186" y="572"/>
      <point x="211" y="594" type="curve"/>
      <point x="248" y="569"/>
      <point x="275" y="545"/>
      <point x="304" y="516" type="curve"/>
      <point x="340" y="520"/>
      <point x="383" y="538"/>
      <point x="408" y="563" type="curve"/>
      <point x="361" y="618"/>
      <point x="319" y="670"/>
      <point x="283" y="721" type="curve"/>
      <point x="259" y="721"/>
      <point x="219" y="716"/>
      <point x="192" y="708" type="curve"/>
      <point x="149" y="664"/>
      <point x="104" y="611"/>
      <point x="62" y="570" type="curve"/>
      <point x="79" y="542"/>
      <point x="103" y="525"/>
    </contour>
    <contour>
      <point x="235" y="458" type="move" name="_top"/>
    </contour>
    <contour>
      <point x="235" y="721" type="move" name="top"/>
    </contour>
  </outline>
</glyph>
<glyph name="d.sc" format="1">
  <advance width="704"/>
  <outline>
    <contour>
      <point x="50" y="-2" type="curve"/>
      <point x="90" y="-2"/>
      <point x="269" y="0"/>
      <point x="330" y="0" type="curve" smooth="yes"/>
      <point x="415" y="0"/>
      <point x="649" y="23"/>
      <point x="649" y="263" type="curve" smooth="yes"/>
      <point x="649" y="462"/>
      <point x="509" y="502"/>
      <point x="335" y="502" type="curve" smooth="yes"/>
      <point x="296" y="502"/>
      <point x="267" y="500"/>
      <point x="243" y="500" type="curve" smooth="yes"/>
      <point x="175" y="500"/>
      <point x="94" y="501"/>
      <point x="50" y="502" type="curve"/>
      <point x="50" y="483"/>
      <point x="52" y="446"/>
      <point x="56" y="426" type="curve"/>
      <point x="106" y="418"/>
      <point x="115" y="411"/>
      <point x="115" y="333" type="curve" smooth="yes"/>
      <point x="115" y="164" type="line" smooth="yes"/>
      <point x="115" y="89"/>
      <point x="105" y="78"/>
      <point x="58" y="74" type="curve"/>
      <point x="53" y="56"/>
      <point x="50" y="25"/>
    </contour>
    <contour>
      <point x="374" y="71" type="curve" smooth="yes"/>
      <point x="324" y="71"/>
      <point x="308" y="93"/>
      <point x="308" y="171" type="curve" smooth="yes"/>
      <point x="308" y="421" type="line"/>
      <point x="316" y="425"/>
      <point x="326" y="427"/>
      <point x="337" y="427" type="curve" smooth="yes"/>
      <point x="399" y="427"/>
      <point x="456" y="403"/>
      <point x="456" y="248" type="curve" smooth="yes"/>
      <point x="456" y="60"/>
      <point x="381" y="71"/>
    </contour>
    <contour>
      <point x="339" y="0" type="move" name="bottom"/>
    </contour>
    <contour>
      <point x="223" y="255" type="move" name="center"/>
    </contour>
    <contour>
      <point x="335" y="500" type="move" name="top"/>
    </contour>
  </outline>
</glyph>
<glyph name="descender-cy.case" format="1">
  <advance width="273"/>
  <outline>
    <contour>
      <point x="39" y="-169" type="curve"/>
      <point x="77" y="-182"/>
      <point x="128" y="-182"/>
      <point x="161" y="-169" type="curve"/>
      <point x="158" y="-111"/>
      <point x="162" y="-50"/>
      <point x="171" y="0" type="curve"/>
      <point x="171" y="30"/>
      <point x="165" y="54"/>
      <point x="152" y="75" type="curve"/>
      <point x="70" y="75" type="line"/>
      <point x="22" y="35" type="line"/>
      <point x="36" y="-42"/>
      <point x="41" y="-115"/>
    </contour>
    <contour>
      <point x="99" y="11" type="move" name="_bottom"/>
    </contour>
    <contour>
      <point x="126" y="75" type="move" name="_bottomright"/>
    </contour>
  </outline>
</glyph>
<glyph name="descender-cy.center.case" format="1">
  <advance width="259"/>
  <outline>
    <contour>
      <point x="72" y="-169" type="curve"/>
      <point x="110" y="-182"/>
      <point x="161" y="-182"/>
      <point x="194" y="-169" type="curve"/>
      <point x="192" y="-117"/>
      <point x="196" y="-57"/>
      <point x="204" y="12" type="curve"/>
      <point x="62" y="12" type="line"/>
      <point x="71" y="-57"/>
      <point x="74" y="-117"/>
    </contour>
    <contour>
      <point x="133" y="0" type="move" name="_bottom"/>
    </contour>
  </outline>
</glyph>
<glyph name="dieresiscomb.case" format="1">
  <advance width="546"/>
  <outline>
    <component base="dieresiscomb" yOffset="213"/>
    <contour>
      <point x="273" y="676" type="move" name="_top"/>
    </contour>
    <contour>
      <point x="273" y="869" type="move" name="top"/>
    </contour>
  </outline>
</glyph>
<glyph name="dieresiscomb.i.case" format="1">
  <advance width="509"/>
  <outline>
    <contour>
      <point x="145" y="710" type="curve" smooth="yes"/>
      <point x="198" y="710"/>
      <point x="237" y="745"/>
      <point x="237" y="787" type="curve" smooth="yes"/>
      <point x="237" y="835"/>
      <point x="209" y="871"/>
      <point x="142" y="871" type="curve" smooth="yes"/>
      <point x="77" y="871"/>
      <point x="50" y="830"/>
      <point x="50" y="786" type="curve" smooth="yes"/>
      <point x="50" y="745"/>
      <point x="88" y="710"/>
    </contour>
    <contour>
      <point x="369" y="710" type="curve" smooth="yes"/>
      <point x="435" y="710"/>
      <point x="459" y="751"/>
      <point x="459" y="795" type="curve" smooth="yes"/>
      <point x="459" y="837"/>
      <point x="419" y="871"/>
      <point x="364" y="871" type="curve" smooth="yes"/>
      <point x="308" y="871"/>
      <point x="270" y="843"/>
      <point x="270" y="795" type="curve" smooth="yes"/>
      <point x="270" y="745"/>
      <point x="303" y="710"/>
    </contour>
    <contour>
      <point x="255" y="676" type="move" name="_top"/>
    </contour>
    <contour>
      <point x="255" y="841" type="move" name="top"/>
    </contour>
  </outline>
</glyph>
<glyph name="dotaccentcomb.case" format="1">
  <advance width="317"/>
  <outline>
    <component base="dotaccentcomb" yOffset="200"/>
    <contour>
      <point x="159" y="676" type="move" name="_top"/>
    </contour>
    <contour>
      <point x="159" y="844" type="move" name="top"/>
    </contour>
  </outline>
</glyph>
<glyph name="dotaccentcomb.ibasic" format="1">
  <advance width="317"/>
  <outline>
    <contour>
      <point x="152" y="515" type="curve" smooth="yes"/>
      <point x="224" y="515"/>
      <point x="267" y="549"/>
      <point x="267" y="598" type="curve" smooth="yes"/>
      <point x="267" y="655"/>
      <point x="230" y="685"/>
      <point x="159" y="685" type="curve" smooth="yes"/>
      <point x="96" y="685"/>
      <point x="50" y="655"/>
      <point x="50" y="596" type="curve" smooth="yes"/>
      <point x="50" y="547"/>
      <point x="89" y="515"/>
    </contour>
    <contour>
      <point x="159" y="458" type="move" name="_top"/>
    </contour>
    <contour>
      <point x="159" y="685" type="move" name="top"/>
    </contour>
  </outline>
</glyph>
<glyph name="five.tf" format="1">
  <advance width="550"/>
  <outline>
    <contour>
      <point x="284" y="629" type="move"/>
    </contour>
    <component base="five.lf" xOffset="24"/>
  </outline>
</glyph>
<glyph name="horncomb.o" format="1">
  <advance width="197"/>
  <outline>
    <contour>
      <point x="-41" y="387" type="line"/>
      <point x="58" y="387"/>
      <point x="160" y="418"/>
      <point x="160" y="499" type="curve" smooth="yes"/>
      <point x="160" y="520"/>
      <point x="154" y="542"/>
      <point x="140" y="567" type="curve"/>
      <point x="110" y="573"/>
      <point x="60" y="568"/>
      <point x="34" y="556" type="curve"/>
      <point x="38" y="537"/>
      <point x="40" y="522"/>
      <point x="40" y="507" type="curve" smooth="yes"/>
      <point x="40" y="474"/>
      <point x="30" y="453"/>
      <point x="3" y="453" type="curve" smooth="yes"/>
      <point x="-19" y="453"/>
      <point x="-49" y="467"/>
      <point x="-128" y="467" type="curve"/>
    </contour>
    <contour>
      <point x="100" y="458" type="move" name="_topright"/>
    </contour>
    <contour>
      <point x="100" y="458" type="move" name="topright"/>
    </contour>
  </outline>
</glyph>
<glyph name="horncomb.sc" format="1">
  <advance width="317"/>
  <outline>
    <contour>
      <point x="130" y="426" type="line"/>
      <point x="179" y="429"/>
      <point x="242" y="457"/>
      <point x="242" y="536" type="curve" smooth="yes"/>
      <point x="242" y="560"/>
      <point x="236" y="582"/>
      <point x="222" y="607" type="curve"/>
      <point x="192" y="613"/>
      <point x="142" y="608"/>
      <point x="116" y="596" type="curve"/>
      <point x="120" y="577"/>
      <point x="122" y="562"/>
      <point x="122" y="550" type="curve" smooth="yes"/>
      <point x="122" y="508"/>
      <point x="96" y="500"/>
      <point x="49" y="500" type="curve"/>
    </contour>
    <contour>
      <point x="138" y="502" type="move" name="_topright"/>
    </contour>
    <contour>
      <point x="138" y="502" type="move" name="topright"/>
    </contour>
  </outline>
</glyph>
<glyph name="hyphen.hist" format="1">
  <advance width="419"/>
  <outline>
    <contour>
      <point x="71" y="238" type="curve"/>
      <point x="170" y="264"/>
      <point x="268" y="281"/>
      <point x="351" y="296" type="curve"/>
      <point x="356" y="331"/>
      <point x="351" y="369"/>
      <point x="347" y="393" type="curve"/>
      <point x="69" y="344" type="line"/>
      <point x="63" y="310"/>
      <point x="66" y="266"/>
    </contour>
    <contour>
      <point x="71" y="88" type="curve"/>
      <point x="170" y="114"/>
      <point x="268" y="131"/>
      <point x="351" y="146" type="curve"/>
      <point x="356" y="181"/>
      <point x="351" y="219"/>
      <point x="347" y="243" type="curve"/>
      <point x="69" y="194" type="line"/>
      <point x="63" y="160"/>
      <point x="66" y="116"/>
    </contour>
  </outline>
</glyph>
<glyph name="macroncomb.case" format="1">
  <advance width="493"/>
  <outline>
    <contour>
      <point x="443" y="828" type="curve"/>
      <point x="59" y="828" type="line"/>
      <point x="52" y="806"/>
      <point x="50" y="776"/>
      <point x="50" y="750" type="curve"/>
      <point x="173" y="760"/>
      <point x="296" y="763"/>
      <point x="434" y="763" type="curve"/>
      <point x="441" y="786"/>
      <point x="443" y="814"/>
    </contour>
    <contour>
      <point x="247" y="676" type="move" name="_top"/>
    </contour>
    <contour>
      <point x="247" y="828" type="move" name="top"/>
    </contour>
  </outline>
</glyph>
<glyph name="macroncomb.i" format="1">
  <advance width="364"/>
  <outline>
    <contour>
      <point x="20" y="550" type="curve"/>
      <point x="127" y="558"/>
      <point x="227" y="560"/>
      <point x="320" y="560" type="curve"/>
      <point x="327" y="588"/>
      <point x="329" y="617"/>
      <point x="329" y="631" type="curve"/>
      <point x="29" y="631" type="line"/>
      <point x="22" y="612"/>
      <point x="20" y="578"/>
    </contour>
    <contour>
      <point x="182" y="458" type="move" name="_top"/>
    </contour>
    <contour>
      <point x="182" y="631" type="move" name="top"/>
    </contour>
  </outline>
</glyph>
<glyph name="o.sc" format="1">
  <advance width="723"/>
  <outline>
    <contour>
      <point x="355" y="-9" type="curve" smooth="yes"/>
      <point x="549" y="-9"/>
      <point x="668" y="102"/>
      <point x="668" y="261" type="curve" smooth="yes"/>
      <point x="668" y="419"/>
      <point x="548" y="507"/>
      <point x="365" y="507" type="curve" smooth="yes"/>
      <point x="178" y="507"/>
      <point x="55" y="415"/>
      <point x="55" y="252" type="curve" smooth="yes"/>
      <point x="55" y="92"/>
      <point x="171" y="-9"/>
    </contour>
    <contour>
      <point x="366" y="64" type="curve" smooth="yes"/>
      <point x="287" y="64"/>
      <point x="251" y="154"/>
      <point x="251" y="270" type="curve" smooth="yes"/>
      <point x="251" y="382"/>
      <point x="285" y="437"/>
      <point x="351" y="437" type="curve" smooth="yes"/>
      <point x="424" y="437"/>
      <point x="472" y="368"/>
      <point x="472" y="244" type="curve" smooth="yes"/>
      <point x="472" y="135"/>
      <point x="436" y="64"/>
    </contour>
    <contour>
      <point x="362" y="0" type="move" name="bottom"/>
    </contour>
    <contour>
      <point x="362" y="261" type="move" name="center"/>
    </contour>
    <contour>
      <point x="517" y="25" type="move" name="ogonek"/>
    </contour>
    <contour>
      <point x="362" y="500" type="move" name="top"/>
    </contour>
    <contour>
      <point x="40" y="500" type="move" name="topleft"/>
    </contour>
    <contour>
      <point x="591" y="498" type="move" name="topright"/>
    </contour>
  </outline>
</glyph>
<glyph name="schmuck" format="1">
  <advance width="3116"/>
  <outline>
    <contour>
      <point x="1392" y="219" type="curve"/>
      <point x="1365" y="258"/>
      <point x="1354" y="311"/>
      <point x="1357" y="365" type="curve"/>
      <point x="914" y="327"/>
      <point x="488" y="319"/>
      <point x="76" y="319" type="curve"/>
      <point x="63" y="293"/>
      <point x="60" y="264"/>
      <point x="60" y="233" type="curve"/>
      <point x="552" y="233"/>
      <point x="914" y="230"/>
      <point x="1341" y="187" type="curve" smooth="yes"/>
      <point x="1373" y="184"/>
      <point x="1386" y="192"/>
    </contour>
    <contour>
      <point x="1724" y="332" type="curve"/>
      <point x="1751" y="293"/>
      <point x="1762" y="240"/>
      <point x="1759" y="186" type="curve"/>
      <point x="2202" y="224"/>
      <point x="2628" y="232"/>
      <point x="3040" y="232" type="curve"/>
      <point x="3053" y="258"/>
      <point x="3056" y="287"/>
      <point x="3056" y="318" type="curve"/>
      <point x="2564" y="318"/>
      <point x="2202" y="321"/>
      <point x="1775" y="364" type="curve" smooth="yes"/>
      <point x="1743" y="367"/>
      <point x="1730" y="359"/>
    </contour>
    <contour>
      <point x="1558" y="163" type="curve" smooth="yes"/>
      <point x="1627" y="163"/>
      <point x="1664" y="217"/>
      <point x="1664" y="280" type="curve" smooth="yes"/>
      <point x="1664" y="333"/>
      <point x="1626" y="383"/>
      <point x="1564" y="383" type="curve" smooth="yes"/>
      <point x="1501" y="383"/>
      <point x="1453" y="343"/>
      <point x="1453" y="274" type="curve" smooth="yes"/>
      <point x="1453" y="206"/>
      <point x="1493" y="163"/>
    </contour>
  </outline>
</glyph>
<glyph name="seven.numr.ss17" format="1">
  <advance width="366"/>
  <outline>
    <contour>
      <point x="36" y="433" type="curve"/>
      <point x="101" y="439"/>
      <point x="187" y="439"/>
      <point x="304" y="439" type="curve"/>
      <point x="311" y="455"/>
      <point x="317" y="483"/>
      <point x="317" y="511" type="curve"/>
      <point x="49" y="511" type="line"/>
      <point x="42" y="493"/>
      <point x="36" y="461"/>
    </contour>
    <component base="seven.numr"/>
  </outline>
</glyph>
<glyph name="strokelongcomb.case" format="1">
  <advance width="836"/>
  <outline>
    <contour>
      <point x="50" y="427" type="curve"/>
      <point x="350" y="432"/>
      <point x="489" y="432"/>
      <point x="771" y="432" type="curve"/>
      <point x="780" y="455"/>
      <point x="786" y="476"/>
      <point x="786" y="508" type="curve"/>
      <point x="65" y="508" type="line"/>
      <point x="57" y="489"/>
      <point x="50" y="462"/>
    </contour>
    <contour>
      <point x="418" y="468" type="move" name="_center"/>
    </contour>
  </outline>
</glyph>
<glyph name="strokelongcomb.sc" format="1">
  <advance width="754"/>
  <outline>
    <contour>
      <point x="44" y="308" type="curve"/>
      <point x="329" y="312"/>
      <point x="407" y="312"/>
      <point x="696" y="312" type="curve"/>
      <point x="704" y="333"/>
      <point x="710" y="352"/>
      <point x="710" y="384" type="curve"/>
      <point x="58" y="384" type="line"/>
      <point x="51" y="366"/>
      <point x="44" y="346"/>
    </contour>
    <contour>
      <point x="377" y="346" type="move" name="_center"/>
    </contour>
  </outline>
</glyph>
<glyph name="strokeshortcomb.sc" format="1">
  <advance width="475"/>
  <outline>
    <contour>
      <point x="44" y="212" type="curve"/>
      <point x="93" y="211"/>
      <point x="135" y="214"/>
      <point x="171" y="213" type="curve"/>
      <point x="289" y="214" type="line"/>
      <point x="347" y="214"/>
      <point x="364" y="214"/>
      <point x="419" y="214" type="curve"/>
      <point x="427" y="237"/>
      <point x="431" y="265"/>
      <point x="431" y="297" type="curve"/>
      <point x="295" y="297" type="line"/>
      <point x="175" y="297" type="line"/>
      <point x="56" y="297" type="line"/>
      <point x="48" y="275"/>
      <point x="44" y="250"/>
    </contour>
    <contour>
      <point x="237" y="265" type="move" name="_center"/>
    </contour>
  </outline>
</glyph>
<glyph name="three.tf" format="1">
  <advance width="550"/>
  <outline>
    <contour>
      <point x="234" y="619" type="move"/>
    </contour>
    <component base="three.lf" xOffset="28"/>
  </outline>
</glyph>
<glyph name="zero.tf.zero" format="1">
  <advance width="550"/>
  <outline>
    <contour>
      <point x="187" y="89" type="line"/>
      <point x="415" y="511" type="line"/>
      <point x="355" y="579" type="line"/>
      <point x="107" y="123" type="line"/>
    </contour>
    <component base="zero.tf"/>
  </outline>
</glyph>
<glyph name="zero.tosf.zero" format="1">
  <advance width="550"/>
  <outline>
    <contour>
      <point x="173" y="40" type="line"/>
      <point x="377" y="314" type="line"/>
      <point x="377" y="458" type="line"/>
      <point x="173" y="186" type="line"/>
    </contour>
    <component base="zero.tosf"/>
  </outline>
</glyph>
